<svg xmlns="http://www.w3.org/2000/svg" height="24" viewBox="0 96 960 960" width="24"><path fill="#097969" d="M209 497q0 60 24.5 113.5T303 703q20 17 25.5 41t-7.5 46q-13 23-37.5 30t-44.5-8q-74-57-115.5-139.5T82 496q0-15 1-30t3-30q-17 11-34.5-2T23 401q-13-23-7-47.5T45 316l122-71q23-13 48-6.5t38 29.5l69 121q13 23 6.5 48T299 475q-23 13-48 6.5T213 452v-1q-2 11-3 23t-1 23Zm271-272q-20 0-40 3t-40 9q-26 8-51 1t-38-30q-14-23-6.5-48.5T336 125q34-14 70-20t73-6q68 0 131.5 22.5T727 186q0-20 20-29.5t43-9.5q26 0 44.5 18.5T853 210v140q0 26-18.5 44.5T790 413H650q-26 0-44.5-18.5T587 350q0-26 18.5-44.5T650 287h2q-37-30-80.5-46T480 225Zm225 423q14-21 24-44t15-48q6-26 25-44.5t45-18.5q26 0 44 19t14 44q-7 44-22.5 84.5T809 718q-33 50-79 87t-101 60q18 11 17.5 33.5T634 941q-14 23-38.5 29t-47.5-7l-121-70q-23-13-29.5-38.5T404 806l70-120q13-23 38-29.5t48 7.5q22 13 29 37.5t-6 46.5q38-15 68.5-40.5T705 648Z"/></svg>