<svg xmlns="http://www.w3.org/2000/svg" height="24" viewBox="0 96 960 960" width="24"><path fill="red" d="M393 744q19.975 0 33.487-13.513Q440 716.975 440 697V455q0-19.975-13.518-33.487Q412.965 408 392.982 408 373 408 359 421.513 345 435.025 345 455v242q0 19.975 13.8 33.487Q372.6 744 393 744Zm175 0q19.975 0 33.487-13.513Q615 716.975 615 697V455q0-19.975-13.518-33.487Q587.965 408 567.982 408 548 408 534 421.513 520 435.025 520 455v242q0 19.975 13.8 33.487Q547.6 744 568 744Zm-88 266q-91 0-169.987-34.084-78.988-34.083-137.417-92.512T80.084 745.987Q46 667 46 576t34.084-169.987q34.083-78.988 92.512-137.417t137.417-92.512Q389 142 480 142t169.987 34.084q78.988 34.083 137.417 92.512t92.512 137.417Q914 485 914 576t-34.084 169.987q-34.083 78.988-92.512 137.417t-137.417 92.512Q571 1010 480 1010Z"/></svg>