<svg xmlns="http://www.w3.org/2000/svg" height="24" viewBox="0 96 960 960" width="24"><path fill="#097969" d="M480 1016q-82 0-154-31t-125.5-84.5Q147 847 116 775T85 622q0-26 18.5-44.5T148 559q26 0 44.5 18.5T211 622q0 112 78.5 190T480 890q112 0 190.5-78.5T749 621q0-112-79-190t-191-78h-7l21 21q14 14 14 33.5T493 441q-14 14-34.5 14T424 441L318 335q-19-19-19-45t19-45l106-106q14-14 34.5-14t34.5 15q14 14 13.5 34T492 208l-19 19h6q82 0 154 31t126 84.5q54 53.5 85 125T875 621q0 82-31 154t-84.5 125.5Q706 954 634 985t-154 31Z"/></svg>